<?xml version="1.0" encoding="UTF-8" standalone="no"?>
<svg width="25px" height="23px" viewBox="0 0 25 23" version="1.1" xmlns="http://www.w3.org/2000/svg" xmlns:xlink="http://www.w3.org/1999/xlink" xmlns:sketch="http://www.bohemiancoding.com/sketch/ns">
    <title>Untitled 7</title>
    <description>Created with Sketch (http://www.bohemiancoding.com/sketch)</description>
    <defs></defs>
    <g id="Page-1" stroke="none" stroke-width="1" fill="none" fill-rule="evenodd" sketch:type="MSPage">
        <g id="icon_17022" sketch:type="MSLayerGroup" transform="translate(1.000000, -59.000000)" fill="#FE4F03">
            <path d="M23.714559,66.871442 C22.8804396,66.3565469 22.059312,64.7744776 21.2551531,64.738154 C20.8243063,64.7185339 19.708347,64.654636 19.708347,64.654636 C17.926895,61.0341975 15.8988662,60.1640196 15.1355383,59.8816493 C14.3722104,59.599279 15.7678888,62.4076044 15.7678888,62.4076044 C15.3343907,61.7023414 12.1630934,60.6402047 11.4514671,61.0516965 C10.7398409,61.4631883 12.4677352,63.2000973 13.0481189,63.6524201 C13.7271334,64.1813674 15.6106629,64.7355026 16.1358982,65.179341 C16.6608684,65.6223841 16.4492895,66.4435117 16.4492895,66.4435117 C16.353045,67.1638875 16.316191,67.2317624 16.316191,67.2317624 L16.0552967,67.3341051 C15.6994836,67.1304803 13.1735285,63.3798598 6.74211324,65.1244578 C1.38290985,66.5776708 2.00836678,71.6181801 2.09400585,72.4891534 C1.85379222,72.1633007 1.38290985,72.4276417 1.38290985,72.4276417 C0.779459257,72.7407679 1.04751222,73.2705106 1.04751222,73.2705106 C0.83699387,73.1615395 0.539245619,72.3764704 0.539245619,72.3764704 C-0.199159438,73.3553542 -0.346310176,73.9362682 0.209150719,75.1134741 C0.760899705,76.2827259 2.37611105,76.6586895 3.55331696,75.5917803 C3.55331696,75.5917803 3.93352265,77.001776 4.77983825,77.1247994 C5.07095809,77.1666909 5.29022595,77.499172 5.24568302,77.7993065 C5.2011401,78.099441 4.93838986,78.563695 5.22712347,78.8349296 C5.7152397,79.2933505 6.31471325,79.5433742 8.26214059,79.7865043 C8.48167359,79.8135483 9.0466794,79.8318427 9.6814161,79.8729388 C9.72834525,80.1264093 9.76679004,80.3273827 9.77156249,80.4209759 C9.78985691,80.776789 12.6299987,81.5706076 12.4255785,81.1074142 C12.1686613,80.5238489 11.9141303,80.222919 11.7266788,79.9768723 C11.9067065,79.980054 12.0541223,79.9784631 12.1434733,79.9699788 C12.5825393,79.9272918 12.8879765,79.1347989 12.273125,78.8988275 C12.1275651,78.8428837 11.8504975,78.7662592 11.5127137,78.682211 C11.5222586,78.6427056 11.5296824,78.6063819 11.5413484,78.563695 C11.6574782,78.1309922 12.4560692,77.5050051 13.4863895,76.6955434 C18.4168672,76.879283 21.5067676,72.5747925 20.623598,70.5104399 C20.2121062,69.5477294 20.3788771,69.570266 20.3788771,69.570266 C20.3788771,69.570266 22.7271908,69.3976622 23.1254257,68.9326128 C23.5310845,68.4593442 24.4190265,67.3062658 23.714559,66.871442 L23.714559,66.871442 Z M8.70412308,78.0564889 C8.70412308,78.0564889 7.59664806,77.7759745 8.01768477,76.4860856 C8.1611236,76.0462242 9.43563459,75.2643368 10.0547282,75.5109137 C10.1743048,75.6328765 10.3050171,75.781618 10.4052386,75.9388439 C10.4322826,75.9950529 10.4659549,76.0586856 10.5046648,76.1270908 C10.578903,76.2981039 10.6003791,76.4680563 10.5150051,76.6133511 C10.2965327,76.9826862 9.8458007,77.013442 9.56104414,77.6290889 C9.49502516,77.7712021 9.47142801,77.9793342 9.47195829,78.217957 C9.02308225,78.1222427 8.70412308,78.0564889 8.70412308,78.0564889 L8.70412308,78.0564889 Z" id="Shape" sketch:type="MSShapeGroup"></path>
        </g>
    </g>
</svg>